<svg xmlns="http://www.w3.org/2000/svg" width="1120" height="270" viewBox="0 0 1120 270">
<metadata id="rtl-boundary-plot-payload-sha256">68e0f3f58ddd9b906d791f50ba5fb005896130e3061a2e0dd23a74fa3e197cf1</metadata>
<rect width="100%" height="100%" fill="#ffffff"/>
<text x="24" y="30" font-family="sans-serif" font-size="20" font-weight="bold">RTL boundary selector comparison</text>
<text x="24" y="52" font-family="monospace" font-size="11">source 98635b24bbe02810bab55ecf8d9044b6c09980d9e989ae37edacaed25001acf2</text>
<text x="300" y="82" font-family="sans-serif" font-size="13">logical bad queries</text>
<text x="690" y="82" font-family="sans-serif" font-size="13">wall time (ns)</text>
<text x="24" y="118" font-family="sans-serif" font-size="12">random / random_gpu</text>
<rect x="300" y="104" width="300.000" height="18" fill="#2563eb"/>
<text x="606.000" y="118" font-family="monospace" font-size="11">2</text>
<rect x="690" y="104" width="73.805" height="18" fill="#059669"/>
<text x="769.805" y="118" font-family="monospace" font-size="11">668058921</text>
<text x="24" y="156" font-family="sans-serif" font-size="12">stratified / stratified_gpu</text>
<rect x="300" y="142" width="300.000" height="18" fill="#2563eb"/>
<text x="606.000" y="156" font-family="monospace" font-size="11">2</text>
<rect x="690" y="142" width="128.766" height="18" fill="#059669"/>
<text x="824.766" y="156" font-family="monospace" font-size="11">1165542289</text>
<text x="24" y="194" font-family="sans-serif" font-size="12">ordered_refinement / ordered_refinement_gpu</text>
<rect x="300" y="180" width="300.000" height="18" fill="#2563eb"/>
<text x="606.000" y="194" font-family="monospace" font-size="11">2</text>
<rect x="690" y="180" width="173.245" height="18" fill="#059669"/>
<text x="869.245" y="194" font-family="monospace" font-size="11">1568152917</text>
<text x="24" y="232" font-family="sans-serif" font-size="12">novelty_boundary_guided / novelty_gpu</text>
<rect x="300" y="218" width="300.000" height="18" fill="#2563eb"/>
<text x="606.000" y="232" font-family="monospace" font-size="11">2</text>
<rect x="690" y="218" width="300.000" height="18" fill="#059669"/>
<text x="996.000" y="232" font-family="monospace" font-size="11">2715498515</text>
</svg>
